<svg width="45" height="45" viewBox="0 0 45 45" fill="none" xmlns="http://www.w3.org/2000/svg">
<path d="M7.50005 26.25C7.14523 26.2512 6.79735 26.1517 6.49683 25.9631C6.19631 25.7745 5.95548 25.5044 5.80233 25.1844C5.64917 24.8643 5.58997 24.5074 5.63161 24.155C5.67325 23.8026 5.81401 23.4693 6.03755 23.1938L24.6 4.06875C24.7393 3.90803 24.929 3.79942 25.1381 3.76075C25.3472 3.72208 25.5633 3.75565 25.7508 3.85595C25.9383 3.95624 26.0861 4.11731 26.17 4.3127C26.254 4.5081 26.2689 4.72622 26.2125 4.93125L22.6125 16.2188C22.5064 16.5029 22.4707 16.8085 22.5087 17.1094C22.5466 17.4103 22.6569 17.6975 22.8302 17.9464C23.0035 18.1953 23.2346 18.3985 23.5037 18.5384C23.7728 18.6784 24.0718 18.751 24.375 18.75H37.5C37.8549 18.7488 38.2027 18.8483 38.5033 19.0369C38.8038 19.2256 39.0446 19.4956 39.1978 19.8156C39.3509 20.1357 39.4101 20.4927 39.3685 20.845C39.3268 21.1974 39.1861 21.5307 38.9625 21.8063L20.4 40.9313C20.2608 41.092 20.0711 41.2006 19.862 41.2393C19.6529 41.2779 19.4368 41.2444 19.2493 41.1441C19.0618 41.0438 18.9139 40.8827 18.83 40.6873C18.7461 40.4919 18.7312 40.2738 18.7875 40.0688L22.3875 28.7813C22.4937 28.4971 22.5293 28.1915 22.4914 27.8906C22.4535 27.5897 22.3432 27.3025 22.1699 27.0536C21.9966 26.8047 21.7655 26.6015 21.4964 26.4616C21.2273 26.3216 20.9283 26.249 20.625 26.25H7.50005Z" stroke="#00A63E" stroke-width="2.66667" stroke-linecap="round" stroke-linejoin="round"/>
</svg>
