<svg width="45" height="45" viewBox="0 0 45 45" fill="none" xmlns="http://www.w3.org/2000/svg">
<path d="M22.5 33.75V9.375" stroke="#00A63E" stroke-width="2.66667" stroke-linecap="round" stroke-linejoin="round"/>
<path d="M28.125 24.375C26.5027 23.9008 25.0778 22.9137 24.0637 21.5616C23.0497 20.2094 22.501 18.5651 22.5 16.875C22.499 18.5651 21.9503 20.2094 20.9363 21.5616C19.9222 22.9137 18.4973 23.9008 16.875 24.375" stroke="#00A63E" stroke-width="2.66667" stroke-linecap="round" stroke-linejoin="round"/>
<path d="M32.9962 12.1875C33.4277 11.4403 33.6815 10.6038 33.7379 9.74287C33.7944 8.88189 33.652 8.01946 33.3219 7.2223C32.9917 6.42514 32.4826 5.71463 31.8339 5.14571C31.1852 4.5768 30.4143 4.16475 29.5809 3.94143C28.7474 3.71811 27.8738 3.68951 27.0276 3.85785C26.1813 4.02618 25.3851 4.38694 24.7006 4.91221C24.0161 5.43748 23.4616 6.11319 23.08 6.88704C22.6984 7.6609 22.5 8.51218 22.5 9.375C22.5 8.51218 22.3016 7.6609 21.92 6.88704C21.5384 6.11319 20.9839 5.43748 20.2994 4.91221C19.6149 4.38694 18.8187 4.02618 17.9724 3.85785C17.1262 3.68951 16.2526 3.71811 15.4191 3.94143C14.5857 4.16475 13.8148 4.5768 13.1661 5.14571C12.5174 5.71463 12.0083 6.42514 11.6781 7.2223C11.348 8.01946 11.2056 8.88189 11.2621 9.74287C11.3185 10.6038 11.5723 11.4403 12.0038 12.1875" stroke="#00A63E" stroke-width="2.66667" stroke-linecap="round" stroke-linejoin="round"/>
<path d="M33.7441 9.60938C34.8463 9.89276 35.8695 10.4232 36.7362 11.1606C37.603 11.898 38.2906 12.8229 38.7469 13.8653C39.2033 14.9078 39.4165 16.0404 39.3703 17.1775C39.3241 18.3145 39.0198 19.4261 38.4804 20.4281" stroke="#00A63E" stroke-width="2.66667" stroke-linecap="round" stroke-linejoin="round"/>
<path d="M33.75 33.7501C35.4009 33.7501 37.0057 33.2052 38.3155 32.2002C39.6253 31.1951 40.5668 29.786 40.9941 28.1913C41.4214 26.5966 41.3106 24.9055 40.6788 23.3802C40.0471 21.8549 38.9297 20.5807 37.5 19.7551" stroke="#00A63E" stroke-width="2.66667" stroke-linecap="round" stroke-linejoin="round"/>
<path d="M37.4381 32.7805C37.5695 33.7972 37.4911 34.8301 37.2077 35.8153C36.9243 36.8005 36.4419 37.7171 35.7904 38.5086C35.1389 39.3 34.332 39.9495 33.4196 40.4169C32.5072 40.8844 31.5087 41.1598 30.4857 41.2261C29.4627 41.2925 28.4369 41.1485 27.4718 40.8029C26.5066 40.4573 25.6226 39.9176 24.8742 39.2169C24.1258 38.5163 23.529 37.6697 23.1207 36.7294C22.7123 35.7891 22.5011 34.775 22.5 33.7499C22.4989 34.775 22.2877 35.7891 21.8793 36.7294C21.471 37.6697 20.8742 38.5163 20.1258 39.2169C19.3774 39.9176 18.4934 40.4573 17.5282 40.8029C16.5631 41.1485 15.5373 41.2925 14.5143 41.2261C13.4913 41.1598 12.4928 40.8844 11.5804 40.4169C10.668 39.9495 9.86113 39.3 9.20959 38.5086C8.55805 37.7171 8.07569 36.8005 7.79228 35.8153C7.50888 34.8301 7.43046 33.7972 7.56187 32.7805" stroke="#00A63E" stroke-width="2.66667" stroke-linecap="round" stroke-linejoin="round"/>
<path d="M11.2497 33.7501C9.59873 33.7501 7.99393 33.2052 6.68417 32.2002C5.37441 31.1951 4.43287 29.786 4.00557 28.1913C3.57826 26.5966 3.68908 24.9055 4.32083 23.3802C4.95258 21.8549 6.06995 20.5807 7.49967 19.7551" stroke="#00A63E" stroke-width="2.66667" stroke-linecap="round" stroke-linejoin="round"/>
<path d="M11.2559 9.60938C10.1537 9.89276 9.13055 10.4232 8.26379 11.1606C7.39703 11.898 6.70943 12.8229 6.25307 13.8653C5.7967 14.9078 5.58353 16.0404 5.62971 17.1775C5.67589 18.3145 5.98021 19.4261 6.51961 20.4281" stroke="#00A63E" stroke-width="2.66667" stroke-linecap="round" stroke-linejoin="round"/>
</svg>
