<svg width="8" height="12" viewBox="0 0 8 12" fill="none" xmlns="http://www.w3.org/2000/svg">
<path d="M6.7271 3.74665C6.58373 3.74665 6.4425 3.7114 6.31586 3.64395C6.18921 3.57651 6.08097 3.47894 6.0006 3.35978C5.92023 3.24063 5.87019 3.10351 5.85486 2.96045C5.83952 2.8174 5.85937 2.67275 5.91265 2.53917L6.92551 0H0V5.59137C-1.29673e-06 5.70698 0.0226927 5.82148 0.0667785 5.92828C0.110864 6.03509 0.175483 6.13213 0.256943 6.21388C0.338404 6.29562 0.435117 6.36046 0.541551 6.4047C0.647985 6.44894 0.762048 6.47171 0.877251 6.47171H1.83825C2.07091 6.47171 2.29404 6.56448 2.45855 6.72957C2.62307 6.89467 2.7155 7.11857 2.7155 7.35205V10.9177C2.7155 11.116 2.78223 11.3085 2.90486 11.464C3.0275 11.6195 3.19886 11.7289 3.39119 11.7745C3.58352 11.8201 3.78556 11.7991 3.96455 11.7151C4.14354 11.631 4.289 11.4888 4.37738 11.3114L7.51169 5.0207C7.57856 4.88648 7.61015 4.73734 7.60344 4.58744C7.59672 4.43753 7.55192 4.29183 7.47331 4.16419C7.3947 4.03654 7.28488 3.9312 7.15428 3.85812C7.02368 3.78504 6.87663 3.74666 6.7271 3.74665Z" fill="#1E2939"/>
</svg>
